<svg xmlns="http://www.w3.org/2000/svg" viewBox="0 0 180 80.09331"><defs><style>.a{fill:#fff;}.b{fill:none;stroke:#fff;stroke-linecap:square;stroke-miterlimit:10;stroke-width:2px;}.c{fill:#cca052;}</style></defs><title>comtesse-logo</title><path class="a" d="M1.07812,78.521L0,77.35675l0.58145-.54C23.381,55.64744,22.431,7.53819,21.49959,1.0107l-0.11226-.78623L22.95708,0,23.069,0.78584c0.94727,6.63565,1.88564,55.566-21.40978,77.19547Z"/><path class="a" d="M42.30393,80l-0.51873-.60053c-6.339-7.33969-10.88954-18.676-13.525-33.69427A164.37718,164.37718,0,0,1,26.01374,12.589l0.03019-.79321,1.58446,0.06087-0.03058.7936a165.5037,165.5037,0,0,0,2.224,32.7801c2.58515,14.73172,7.01375,25.811,13.16268,32.93014L43.50321,78.961Z"/><path class="a" d="M47.65731,40.07386h1.60037V54.65243h6.61887V56.104H47.65731V40.07386Z"/><path class="a" d="M69.30637,56.104H67.79274v-2.0796H67.74937a5.47214,5.47214,0,0,1-4.60742,2.36027,6.21857,6.21857,0,1,1,0-12.43393,5.35245,5.35245,0,0,1,4.60742,2.38354h0.04337v-2.0796h1.51363V56.104ZM63.14195,55.02a4.85227,4.85227,0,1,0-4.84511-4.80884A4.69791,4.69791,0,0,0,63.14195,55.02Z"/><path class="a" d="M93.31215,51.90143a8.47342,8.47342,0,0,1-7.37608,4.48323,8.28567,8.28567,0,1,1,7.311-12.1951h-1.7954a6.777,6.777,0,0,0-5.559-2.92472,6.83524,6.83524,0,0,0,.02164,13.66905,6.83477,6.83477,0,0,0,5.60232-3.03246h1.79548Z"/><path class="a" d="M101.29053,43.95073a6.21718,6.21718,0,1,1-6.16514,6.30383A6.283,6.283,0,0,1,101.29053,43.95073ZM101.31225,55.02a4.85574,4.85574,0,0,0,0-9.70454A4.85571,4.85571,0,0,0,101.31225,55.02Z"/><path class="a" d="M109.81016,44.25466h1.51442v1.3647l-0.04337-.04343v0.04343h0.04337a3.77422,3.77422,0,0,1,3.2223-1.66863,4.53079,4.53079,0,0,1,3.98039,2.275,4.52862,4.52862,0,0,1,3.97952-2.275c1.81712,0,4.73752,1.084,4.73752,5.11285V56.104h-1.51443V49.23722a4.55345,4.55345,0,0,0-.54117-2.47032,3.20345,3.20345,0,0,0-5.36385,0,4.56005,4.56005,0,0,0-.54117,2.47032V56.104h-1.51364V49.23722a4.55345,4.55345,0,0,0-.54117-2.47032,3.20353,3.20353,0,0,0-5.36392,0,4.56206,4.56206,0,0,0-.54038,2.47032V56.104h-1.51442V44.25466Z"/><path class="a" d="M131.45764,45.61936H128.97v-1.3647h2.4876v-4.1808h1.51443v4.1808h2.83287v1.3647h-2.83287V56.104h-1.51443V45.61936Z"/><path class="a" d="M138.37769,50.73142A4.70712,4.70712,0,0,0,142.96347,55.02a4.48547,4.48547,0,0,0,4.23972-2.79442h1.60029a6.15816,6.15816,0,0,1-11.98271-2.03617,6.25987,6.25987,0,0,1,6.1427-6.23864,6.14744,6.14744,0,0,1,5.2779,3.03325,6.24684,6.24684,0,0,1,.90824,3.74744H138.37769Zm9.23586-1.3647a4.65755,4.65755,0,0,0-9.23586,0h9.23586Z"/><path class="a" d="M152.08858,52.59458c0.04337,2.25253,1.57984,2.42538,2.12022,2.42538a1.9921,1.9921,0,0,0,2.20655-2.12216c0-1.62441-1.47106-1.99353-2.3583-2.36107-1.21086-.41168-3.13676-1.06219-3.13676-3.293a3.22763,3.22763,0,0,1,3.37524-3.293,3.16577,3.16577,0,0,1,3.2223,3.22786h-1.51435a1.78945,1.78945,0,0,0-1.773-1.86316,1.75457,1.75457,0,0,0-1.79619,1.77717c0,1.25608,1.25431,1.68872,2.1199,1.971,1.38425,0.45432,3.374,1.21265,3.374,3.6605a3.41317,3.41317,0,0,1-3.7194,3.66058,3.54049,3.54049,0,0,1-3.63385-3.79008h1.51363Z"/><path class="a" d="M160.4785,52.59458c0.04337,2.25253,1.57944,2.42538,2.11982,2.42538a1.9921,1.9921,0,0,0,2.20655-2.12216c0-1.62441-1.471-1.99353-2.3583-2.36107-1.21086-.41168-3.13557-1.06219-3.13557-3.293a3.22689,3.22689,0,0,1,3.374-3.293,3.16493,3.16493,0,0,1,3.22238,3.22786h-1.51284A1.79062,1.79062,0,0,0,162.62,45.31542a1.75414,1.75414,0,0,0-1.79469,1.77717c0,1.25608,1.25423,1.68872,2.11982,1.971,1.38432,0.45432,3.37412,1.21265,3.37412,3.6605a3.41367,3.41367,0,0,1-3.721,3.66058,3.54232,3.54232,0,0,1-3.63417-3.79008h1.51435Z"/><path class="a" d="M169.21489,50.73142A4.70729,4.70729,0,0,0,173.80146,55.02a4.48629,4.48629,0,0,0,4.23972-2.79442h1.5995a6.15774,6.15774,0,0,1-11.982-2.03617,6.25994,6.25994,0,0,1,6.14278-6.23864,6.14613,6.14613,0,0,1,5.27711,3.03325,6.24154,6.24154,0,0,1,.909,3.74744H169.21489Zm9.23657-1.3647a4.658,4.658,0,0,0-9.23657,0h9.23657Z"/><path class="a" d="M47.8253,62.47753h1.96486a3.0138,3.0138,0,0,1,1.82206.41045,2.08562,2.08562,0,0,1,0,3.4003,3,3,0,0,1-1.82206.4121h-1.2591v2.84571H47.8253V62.47753Zm0.70576,3.58178h1.02075a2.9584,2.9584,0,0,0,1.41187-.18148,1.42427,1.42427,0,0,0,0-2.57949,2.9584,2.9584,0,0,0-1.41187-.18148H48.53106V66.0593Z"/><path class="a" d="M57.60313,69.54609H57.05655V68.79647H57.04095a1.97246,1.97246,0,0,1-1.66253.85138,2.24429,2.24429,0,1,1,0-4.48742,1.93209,1.93209,0,0,1,1.66253.85989h0.01561V65.2707h0.54657v4.27538Zm-2.22471-.39A1.751,1.751,0,1,0,53.63,67.41942,1.69576,1.69576,0,0,0,55.37842,69.156Z"/><path class="a" d="M58.59249,65.2707h0.54657V65.888h0.01561a1.218,1.218,0,0,1,1.202-.72756v0.57838a1.32012,1.32012,0,0,0-.92078.42226,1.40215,1.40215,0,0,0-.29678.88359v2.50143H58.59249V65.2707Z"/><path class="a" d="M61.09534,63.76132h0.54658v0.98536H61.09534V63.76132Zm0,1.50938h0.54658v4.27538H61.09534V65.2707Z"/><path class="a" d="M62.88237,68.281a0.75285,0.75285,0,0,0,.765.87508,0.71936,0.71936,0,0,0,.79628-0.76654,0.98214,0.98214,0,0,0-.8509-0.85138,1.30574,1.30574,0,0,1-1.13165-1.1888,1.16484,1.16484,0,0,1,1.21757-1.18889,1.14316,1.14316,0,0,1,1.16294,1.1651H64.29511A0.64467,0.64467,0,0,0,63.655,65.654a0.63259,0.63259,0,0,0-.64776.64107,0.86178,0.86178,0,0,0,.765.71054,1.41312,1.41312,0,0,1,1.21756,1.32113,1.23207,1.23207,0,0,1-1.34242,1.32113A1.27819,1.27819,0,0,1,62.3358,68.281h0.54657Z"/><path class="a" d="M69.26015,63.11686H67.63829V62.47753h3.93978v0.63934H69.96591v6.42922H69.26015V63.11686Z"/><path class="a" d="M74.19649,65.16043a2.24379,2.24379,0,1,1-2.22471,2.27593A2.26786,2.26786,0,0,1,74.19649,65.16043ZM74.20411,69.156a1.75227,1.75227,0,0,0,0-3.50207A1.75229,1.75229,0,0,0,74.20411,69.156Z"/><path class="a" d="M80.9782,69.54609H80.46293V68.88131H80.44724a1.44792,1.44792,0,0,1-1.36609.76654,1.79074,1.79074,0,0,1-1.46736-.64107,2.21445,2.21445,0,0,1-.37464-1.37532V65.2707h0.54649V67.623A1.7479,1.7479,0,0,0,78.09,68.74907a1.28121,1.28121,0,0,0,.9911.407,1.22137,1.22137,0,0,0,.90552-0.34428,1.545,1.545,0,0,0,.445-1.28206v-2.259H80.9782v4.27538Z"/><path class="a" d="M82.0065,65.2707h0.54657V65.888h0.01561a1.218,1.218,0,0,1,1.202-.72756v0.57838a1.32032,1.32032,0,0,0-.92087.42226,1.4021,1.4021,0,0,0-.2967.88359v2.50143H82.0065V65.2707Z"/><path class="a" d="M87.15743,62.47753h3.86313v0.63934H87.86319V65.6591h3.05237v0.63934H87.86319v2.60831h3.15737v0.63934H87.15743V62.47753Z"/><path class="a" d="M92.10894,63.76132h0.54658v0.98536H92.10894V63.76132Zm0,1.50938h0.54658v4.27538H92.10894V65.2707Z"/><path class="a" d="M93.97383,65.76252H93.31046V65.2707h0.66336a1.41466,1.41466,0,0,1,1.6392-1.61115v0.50883A0.92777,0.92777,0,0,0,94.5204,65.2707H95.613v0.49181H94.5204v3.78357H93.97383V65.76252Z"/><path class="a" d="M95.95767,65.76252H95.29388V65.2707h0.66379a1.41413,1.41413,0,0,1,1.63877-1.61115v0.50883a0.92777,0.92777,0,0,0-1.09263,1.10232h1.09263v0.49181H96.50382v3.78357H95.95767V65.76252Z"/><path class="a" d="M98.30056,67.60767A1.69924,1.69924,0,0,0,99.95537,69.156a1.61764,1.61764,0,0,0,1.53-1.00906h0.57744a2.22226,2.22226,0,0,1-4.32413-.73433,2.2591,2.2591,0,0,1,2.21664-2.25222,2.21864,2.21864,0,0,1,1.90469,1.09563,2.25405,2.25405,0,0,1,.32774,1.35161H98.30056Zm3.333-.49181a1.68084,1.68084,0,0,0-3.333,0h3.333Z"/><path class="a" d="M103.02135,63.76132h0.54649v5.78476h-0.54649V63.76132Z"/><path class="b" d="M9.94382,78.686c13.86952-16.918,16.5283-17.94759,23.52732-12.27029"/><path class="c" d="M9.77273,65.2968a4.633,4.633,0,0,0,.51406,2.87041,3.96338,3.96338,0,0,0,.74754,1.06386,7.76818,7.76818,0,0,0,3.32339,1.453c0.57368,0.16594,1.18264.20786,1.7625,0.35515A4.912,4.912,0,0,1,18.28031,72.162a16.61211,16.61211,0,0,0,3.28351,2.323,3.72433,3.72433,0,0,0,3.428.05113c0.87526-.36595,1.68742-0.88235,2.529-1.33056a4.559,4.559,0,0,1,2.50695-.57373c0.68364,0.04962,1.365.14578,2.04862,0.20469a5.3652,5.3652,0,0,0,2.96068-.535,3.14511,3.14511,0,0,0,.61855-0.44979,4.171,4.171,0,0,0,1.03367-1.588c0.41416-1.00487.84545-2.005,1.224-3.02238a5.79733,5.79733,0,0,1,1.44165-2.2222c0.75872-.72729,1.51593-1.45926,2.2236-2.23617a3.91256,3.91256,0,0,0,.98324-3.6551,11.9791,11.9791,0,0,0-.847-2.46111,5.97806,5.97806,0,0,1-.32053-4.19167,17.71713,17.71713,0,0,0,.41036-2.45166,5.92063,5.92063,0,0,0-.18346-1.07474,2.64731,2.64731,0,0,0-1.01194-1.77249,12.58079,12.58079,0,0,0-3.48789-1.8268,1.70651,1.70651,0,0,1-1.05222-.95675c-0.1726-.46988-0.3019-0.95532-0.47228-1.42671a3.71442,3.71442,0,0,0-2.59368-2.337,6.78618,6.78618,0,0,0-2.5936-.02787,5.225,5.225,0,0,1-2.70674-.321c-0.73089-.33967-1.43856-0.72888-2.18412-1.02972a10.24364,10.24364,0,0,0-2.08961-.6498,4.21323,4.21323,0,0,0-1.69638.10393,6.02711,6.02711,0,0,0-2.37455,1.55073,22.33431,22.33431,0,0,1-1.94754,1.66863,5.97587,5.97587,0,0,1-2.88052.77382,6.5682,6.5682,0,0,0-2.22051.57532,3.53506,3.53506,0,0,0-2.03507,2.09508,13.83067,13.83067,0,0,0-.60935,3.68765,4.972,4.972,0,0,1-.88494,2.94957,10.1301,10.1301,0,0,0-2.073,3.80707,4.8549,4.8549,0,0,0,.0004,2.03149A7.68533,7.68533,0,0,0,8.35,60.77015a5.21757,5.21757,0,0,1,1.23338,2.43006C9.681,63.95076,9.7212,64.7091,9.77273,65.2968Z"/><path class="a" d="M35.05169,50.56627a2.60967,2.60967,0,0,1-1.25423,1.88412,5.67341,5.67341,0,0,1,1.14276,3.11233q0,0.349-.20906.349-0.1672,0-.1672-0.46059a5.0373,5.0373,0,0,0-.97555-2.83325A18.54934,18.54934,0,0,1,28.09064,55.22a20.84381,20.84381,0,0,1-6.1668,1.09633q-0.37627,0-.65494-0.02787a10.37813,10.37813,0,0,0-2.22978,6.0014,4.06262,4.06262,0,0,0,1.21934,3.11233,4.66253,4.66253,0,0,0,3.32378,1.14445q3.97187,0,7.07957-3.81017a7.05957,7.05957,0,0,0,1.88142-4.3685,2.31535,2.31535,0,0,0-.65423-1.73064,2.374,2.374,0,0,0-1.739-.642,5.75772,5.75772,0,0,0-3.73565,1.83458q-1.99515,1.83529-1.996,3.42715c0,0.09305.02791,0.13958,0.08285,0.13958a0.21277,0.21277,0,0,0,.11076-0.05582,1.07959,1.07959,0,0,1,.69062-0.335,0.652,0.652,0,0,1,.70449.76762,0.90009,0.90009,0,0,1-1.00338,1.03281,0.91036,0.91036,0,0,1-.91982-1.11658,5.615,5.615,0,0,1,2.0208-3.95753A5.93622,5.93622,0,0,1,30.2019,55.7721q2.67574,0,2.67574,2.94488A7.26681,7.26681,0,0,1,29.972,64.264a9.63955,9.63955,0,0,1-6.44548,2.506,5.66533,5.66533,0,0,1-4.146-1.66085,5.543,5.543,0,0,1-1.67925-4.1033,8.81308,8.81308,0,0,1,1.6584-4.87093q-6.03445-1.11654-6.03441-4.77319A4.27758,4.27758,0,0,1,15.569,47.719a10.01341,10.01341,0,0,1,5.58837-1.46545,17.19081,17.19081,0,0,1,9.43477,3.11233,8.429,8.429,0,0,1,1.68631-.16745Q35.05169,49.19848,35.05169,50.56627ZM30.2019,49.42175a17.6907,17.6907,0,0,0-9.01665-2.45635,9.45968,9.45968,0,0,0-5.16334,1.39566q-2.20885,1.3957-2.20885,3.26589,0,3.33568,5.65806,4.3126Q22.983,51.04072,30.2019,49.42175Zm3.275,3.0007a10.49958,10.49958,0,0,0-2.8848-2.7494,16.39111,16.39111,0,0,0-5.08668,2.44856,16.76936,16.76936,0,0,0-4.06934,3.95753,22.45972,22.45972,0,0,0,6.44548-1.06846A18.44023,18.44023,0,0,0,33.47692,52.42245Zm1.35182-1.85617q0-1.14453-2.22978-1.14453a8.51157,8.51157,0,0,0-1.6584.1954,11.03511,11.03511,0,0,1,2.74543,2.6658A2.59983,2.59983,0,0,0,34.82875,50.56627Z"/></svg>