<?xml version="1.0" standalone="no"?>
<!DOCTYPE svg PUBLIC "-//W3C//DTD SVG 20010904//EN"
 "http://www.w3.org/TR/2001/REC-SVG-20010904/DTD/svg10.dtd">
<svg version="1.0" xmlns="http://www.w3.org/2000/svg"
 width="260.000000pt" height="260.000000pt" viewBox="0 0 260.000000 260.000000"
 preserveAspectRatio="xMidYMid meet">
<metadata>
Created by potrace 1.11, written by Peter Selinger 2001-2013
</metadata>
<g transform="translate(0.000000,260.000000) scale(0.100000,-0.100000)"
fill="#000000" stroke="none">
<path d="M490 1305 l0 -1085 80 0 c44 0 80 3 81 8 0 4 2 455 2 1002 l2 995
412 1 c453 1 483 -2 593 -62 115 -62 221 -191 256 -312 22 -73 25 -197 7 -272
-40 -175 -179 -326 -352 -381 -61 -20 -89 -22 -346 -23 l-280 -1 -3 -83 -3
-82 271 0 c358 0 428 14 581 116 142 94 257 255 293 412 18 80 18 229 0 318
-8 38 -33 107 -56 154 -33 69 -57 101 -132 175 -73 73 -107 99 -176 133 -141
69 -160 71 -727 72 l-503 0 0 -1085z"/>
<path d="M938 928 c-9 -7 -59 -82 -112 -166 -53 -84 -103 -163 -111 -176 -23
-34 -1 -43 27 -11 19 22 29 25 94 25 60 0 72 3 68 15 -4 9 -24 15 -64 17 l-59
3 84 133 c46 73 85 129 87 125 2 -4 3 -81 3 -171 -2 -152 3 -189 21 -161 10
17 11 340 2 362 -10 20 -19 21 -40 5z"/>
<path d="M1038 929 c-21 -13 0 -22 57 -24 88 -2 133 -60 99 -130 -18 -39 -56
-55 -119 -52 -30 1 -40 -2 -40 -13 0 -10 11 -15 35 -15 33 0 37 -4 67 -60 36
-70 51 -88 63 -80 5 3 -6 34 -24 69 -34 63 -33 86 0 86 24 0 57 60 57 104 0
52 -23 90 -66 107 -35 15 -110 19 -129 8z"/>
<path d="M1260 925 c-16 -19 -5 -47 17 -43 22 4 29 43 9 51 -8 3 -20 -1 -26
-8z"/>
<path d="M1344 927 c-2 -7 -3 -93 -2 -192 2 -130 6 -179 15 -182 10 -4 13 36
15 163 l3 167 23 -44 c60 -118 138 -234 158 -237 18 -3 34 19 100 132 43 75
81 136 84 136 3 0 5 -71 5 -158 0 -121 3 -159 12 -159 7 0 13 7 14 16 3 52 1
363 -3 367 -15 14 -41 -21 -118 -156 -47 -82 -88 -149 -92 -150 -3 0 -45 67
-92 149 -83 142 -111 176 -122 148z"/>
<path d="M1821 927 c-16 -16 -14 -34 5 -41 21 -8 45 11 38 29 -8 19 -30 25
-43 12z"/>
<path d="M1940 930 c-22 -3 -36 -11 -38 -22 -3 -15 1 -15 34 -7 28 8 47 7 85
-5 56 -19 59 -19 59 -6 0 24 -85 49 -140 40z"/>
<path d="M1264 837 c-2 -7 -3 -73 -2 -147 2 -96 7 -135 16 -138 9 -3 12 31 12
147 0 97 -4 151 -10 151 -6 0 -13 -6 -16 -13z"/>
<path d="M1834 842 c-7 -4 -11 -58 -12 -137 -1 -119 7 -170 23 -153 6 6 8 289
2 294 -1 2 -7 0 -13 -4z"/>
<path d="M1900 726 c0 -10 15 -19 42 -27 96 -25 140 -62 142 -119 1 -33 20
-33 24 1 7 61 -42 110 -137 138 -23 7 -49 15 -57 18 -8 3 -14 -1 -14 -11z"/>
<path d="M1104 489 c-10 -29 -28 -58 -39 -64 -11 -6 -31 -16 -44 -24 l-24 -13
29 -23 c31 -24 31 -13 -3 -129 -4 -15 4 -12 43 14 26 19 53 33 59 33 6 0 33
-14 59 -33 39 -26 47 -29 43 -14 -33 115 -33 105 -5 125 15 11 37 28 50 39
l23 19 -50 2 c-27 1 -56 2 -64 3 -8 0 -24 27 -36 60 l-22 58 -19 -53z m110
-79 c42 -1 48 -3 35 -13 -75 -58 -70 -51 -54 -97 8 -24 14 -45 12 -47 -2 -2
-15 5 -28 15 -42 32 -58 33 -99 7 -22 -14 -40 -24 -40 -21 0 2 7 23 15 46 15
41 14 43 -10 62 -24 19 -25 21 -8 34 10 7 26 14 35 14 10 0 23 17 34 47 l18
47 19 -47 19 -47 52 0z"/>
<path d="M1376 493 c-10 -26 -20 -54 -22 -61 -2 -7 -8 -11 -12 -8 -5 3 -21 -8
-36 -23 l-28 -29 22 -15 c21 -15 22 -17 6 -68 -8 -29 -13 -55 -10 -58 2 -3 25
10 50 28 l46 32 51 -35 c29 -19 53 -33 55 -32 1 2 -7 28 -17 59 l-20 56 50 37
c28 20 48 38 47 40 -2 2 -30 4 -62 6 l-59 3 -22 58 -22 59 -17 -49z m44 -55
c9 -26 14 -28 62 -28 58 -1 59 2 -10 -48 -22 -17 -22 -19 -8 -65 l14 -48 -21
14 c-67 43 -62 43 -106 14 -44 -29 -48 -24 -27 33 12 32 11 37 -7 53 -20 17
-20 18 -1 32 10 8 24 15 30 15 6 0 19 21 29 47 20 51 19 51 45 -19z"/>
<path d="M1646 495 c-10 -28 -20 -56 -22 -63 -2 -7 -7 -11 -11 -10 -5 2 -22
-8 -38 -20 l-30 -24 23 -19 c23 -18 23 -19 8 -71 -8 -29 -13 -54 -11 -56 1 -2
20 7 42 20 21 14 43 27 49 31 6 4 29 -6 50 -21 65 -47 64 -47 48 10 -9 29 -18
56 -20 59 -3 6 22 29 81 73 19 14 17 15 -30 17 -27 1 -56 1 -63 0 -6 -1 -17
11 -23 26 -6 15 -15 37 -20 48 -4 11 -9 27 -12 35 -2 8 -12 -8 -21 -35z m100
-85 l48 -5 -38 -31 -39 -31 16 -47 c17 -49 16 -49 -36 -13 l-29 20 -40 -23
c-21 -12 -41 -20 -44 -18 -2 3 2 22 9 44 13 36 12 40 -7 56 -21 17 -21 17 -1
32 11 8 25 16 32 16 6 0 17 17 24 38 18 57 21 58 39 11 17 -42 19 -44 66 -49z"/>
<path d="M815 475 c-11 -30 -24 -54 -30 -54 -5 1 -34 1 -63 0 l-54 -1 51 -40
c28 -22 51 -41 51 -43 0 -1 -7 -24 -15 -51 -8 -27 -13 -51 -11 -54 3 -2 25 10
50 28 l46 31 46 -31 c25 -18 48 -30 51 -27 3 3 -2 28 -10 56 l-15 51 50 40 51
40 -44 1 c-85 2 -83 1 -103 57 -10 28 -22 52 -26 52 -4 0 -15 -25 -25 -55z
m45 -17 c15 -42 16 -43 65 -46 l50 -3 -39 -34 c-37 -32 -38 -34 -26 -70 7 -20
10 -39 7 -42 -3 -3 -20 5 -38 18 l-32 23 -39 -23 c-22 -12 -41 -21 -44 -19 -2
2 1 22 7 43 11 39 10 40 -27 72 l-39 33 51 0 51 0 13 45 c7 25 16 45 19 45 4
0 13 -19 21 -42z"/>
<path d="M1910 485 c-9 -31 -23 -52 -49 -71 -20 -15 -38 -29 -40 -31 -3 -2 5
-13 17 -26 20 -22 21 -25 7 -71 -8 -27 -13 -51 -11 -54 3 -2 25 10 50 28 l46
31 46 -31 c25 -18 48 -30 50 -27 3 3 -1 28 -10 56 l-15 51 50 40 51 40 -49 1
c-26 1 -55 2 -63 3 -8 0 -23 24 -34 54 -10 28 -22 52 -26 52 -4 0 -13 -20 -20
-45z m44 -37 c10 -30 15 -33 61 -38 l49 -5 -39 -32 -40 -31 17 -46 17 -46 -27
15 c-15 8 -34 21 -44 27 -13 10 -24 7 -58 -16 -35 -23 -41 -25 -37 -9 17 63
17 76 0 95 -17 19 -17 20 1 30 33 18 57 48 63 79 7 36 21 27 37 -23z"/>
</g>
</svg>
