<svg xmlns="http://www.w3.org/2000/svg" viewBox="0 0 168 31"><defs><style>.a{fill:#fff;}.b{fill:#cca052;}</style></defs><title>comtesse-logo-mobile</title><path class="a" d="M36.026,1.55608h1.59591V16.07053h6.60041V17.5157H36.026V1.55608Z" transform="translate(0.00033 0)"/><path class="a" d="M57.6147,17.5157H56.10529V15.44525H56.062a5.46,5.46,0,0,1-4.59458,2.34989,6.19145,6.19145,0,1,1,0-12.37925A5.34045,5.34045,0,0,1,56.062,7.78895h0.04325V5.71849H57.6147V17.5157Zm-6.14724-1.07926A4.74078,4.74078,0,0,0,56.191,11.6271a4.77731,4.77731,0,0,0-4.72352-4.85251,4.7134,4.7134,0,0,0-4.8316,4.87417A4.681,4.681,0,0,0,51.46746,16.43644Z" transform="translate(0.00033 0)"/><path class="a" d="M81.55354,13.33163A8.45194,8.45194,0,0,1,74.198,17.79514a8.24926,8.24926,0,1,1,7.2906-12.14147H79.69824a6.762,6.762,0,0,0-5.54346-2.91185A6.89768,6.89768,0,0,0,67.447,9.5783a6.9339,6.9339,0,0,0,6.72936,6.77245,6.81967,6.81967,0,0,0,5.5867-3.01912h1.79047Z" transform="translate(0.00033 0)"/><path class="a" d="M89.50967,5.41589a6.26036,6.26036,0,0,1,6.19049,6.18962A6.16969,6.16969,0,1,1,89.50967,5.41589Zm0.02166,11.02055a4.71875,4.71875,0,0,0,4.65869-4.895,4.66259,4.66259,0,1,0-9.31818.12893A4.73222,4.73222,0,0,0,89.53133,16.43644Z" transform="translate(0.00033 0)"/><path class="a" d="M98.00555,5.71849h1.5102v1.3587l-0.04325-.04324V7.07719h0.04325a3.76556,3.76556,0,0,1,3.21332-1.6613,4.51991,4.51991,0,0,1,3.96929,2.265,4.51775,4.51775,0,0,1,3.96842-2.265c1.81206,0,4.72431,1.07926,4.72431,5.09037V17.5157h-1.51021V10.67914a4.52755,4.52755,0,0,0-.53966-2.45945,3.19735,3.19735,0,0,0-5.34889,0,4.53411,4.53411,0,0,0-.53966,2.45945V17.5157h-1.50942V10.67914a4.52755,4.52755,0,0,0-.53966-2.45945,3.19742,3.19742,0,0,0-5.349,0,4.53611,4.53611,0,0,0-.53887,2.45945V17.5157h-1.5102V5.71849Z" transform="translate(0.00033 0)"/><path class="a" d="M119.59267,7.07719H117.112V5.71849h2.48066V1.55608h1.51021V5.71849h2.825v1.3587h-2.825V17.5157h-1.51021V7.07719Z" transform="translate(0.00033 0)"/><path class="a" d="M126.49342,12.16676a4.69083,4.69083,0,0,0,4.573,4.26968,4.47286,4.47286,0,0,0,4.2279-2.78213h1.59583a5.83873,5.83873,0,1,1,.34518-1.48755H126.49342Zm9.2101-1.3587a4.64555,4.64555,0,0,0-9.2101,0h9.2101Z" transform="translate(0.00033 0)"/><path class="a" d="M140.16608,14.02173c0.04325,2.24262,1.57543,2.41471,2.1143,2.41471a1.985,1.985,0,0,0,2.2004-2.11282c0-1.61727-1.467-1.98477-2.35172-2.35068-1.20748-.40987-3.128-1.05752-3.128-3.27848a3.216,3.216,0,0,1,3.36582-3.27856,3.15441,3.15441,0,0,1,3.21332,3.21366h-1.51013a1.78313,1.78313,0,0,0-1.7681-1.855,1.74818,1.74818,0,0,0-1.79119,1.76936c0,1.25056,1.25081,1.6813,2.114,1.96232,1.38039,0.45232,3.36464,1.20732,3.36464,3.6444a3.40086,3.40086,0,0,1-3.709,3.64448,3.5278,3.5278,0,0,1-3.62371-3.77341h1.50941Z" transform="translate(0.00033 0)"/><path class="a" d="M148.53261,14.02173c0.04325,2.24262,1.575,2.41471,2.11391,2.41471a1.985,1.985,0,0,0,2.2004-2.11282c0-1.61727-1.46688-1.98477-2.35172-2.35068-1.20748-.40987-3.12683-1.05752-3.12683-3.27848A3.21528,3.21528,0,0,1,150.733,5.41589a3.15358,3.15358,0,0,1,3.2134,3.21366h-1.50862a1.7843,1.7843,0,0,0-1.7696-1.855,1.74775,1.74775,0,0,0-1.78968,1.76936c0,1.25056,1.25073,1.6813,2.11391,1.96232,1.38046,0.45232,3.36471,1.20732,3.36471,3.6444a3.40136,3.40136,0,0,1-3.71061,3.64448,3.52961,3.52961,0,0,1-3.624-3.77341h1.51013Z" transform="translate(0.00033 0)"/><path class="a" d="M157.24463,12.16676a4.691,4.691,0,0,0,4.57378,4.26968,4.47369,4.47369,0,0,0,4.2279-2.78213h1.595a5.83139,5.83139,0,1,1,.34589-1.48755h-10.7426Zm9.21082-1.3587a4.646,4.646,0,0,0-9.21082,0h9.21082Z" transform="translate(0.00033 0)"/><path class="a" d="M36.19353,23.86121h1.95938a3.0092,3.0092,0,0,1,1.817.40864,2.0745,2.0745,0,0,1,0,3.38534,2.99536,2.99536,0,0,1-1.817.41029H36.89732v2.83319H36.19353V23.86121Zm0.70379,3.566h1.01791a2.9545,2.9545,0,0,0,1.40793-.18068,1.417,1.417,0,0,0,0-2.56814,2.9545,2.9545,0,0,0-1.40793-.18068H36.89732v2.9295Z" transform="translate(0.00033 0)"/><path class="a" d="M45.94409,30.89868H45.399V30.15237H45.38347A1.96809,1.96809,0,0,1,43.72558,31a2.2345,2.2345,0,1,1,0-4.46769,1.92775,1.92775,0,0,1,1.65789.8561H45.399V26.6421h0.54505v4.25658Zm-2.2185-.38833a1.74333,1.74333,0,1,0-1.74357-1.729A1.68966,1.68966,0,0,0,43.72558,30.51035Z" transform="translate(0.00033 0)"/><path class="a" d="M46.93069,26.6421h0.54505v0.61457h0.01556a1.21492,1.21492,0,0,1,1.19861-.72436v0.57584a1.31732,1.31732,0,0,0-.91822.4204,1.39454,1.39454,0,0,0-.296.87971v2.49042H46.93069V26.6421Z" transform="translate(0.00033 0)"/><path class="a" d="M49.42657,25.13936h0.54505v0.981H49.42657v-0.981Zm0,1.50274h0.54505v4.25658H49.42657V26.6421Z" transform="translate(0.00033 0)"/><path class="a" d="M51.20861,29.63912a0.75015,0.75015,0,0,0,.76285.87123,0.7168,0.7168,0,0,0,.79406-0.76317,0.97866,0.97866,0,0,0-.84853-0.84763A1.301,1.301,0,0,1,50.7885,27.716a1.16065,1.16065,0,0,1,1.21417-1.18366,1.13906,1.13906,0,0,1,1.1597,1.16h-0.545a0.64239,0.64239,0,0,0-.63834-0.6686,0.63028,0.63028,0,0,0-.646.63825,0.85883,0.85883,0,0,0,.76285.70741,1.4079,1.4079,0,0,1,1.21417,1.31532A1.22763,1.22763,0,0,1,51.97146,31a1.2736,1.2736,0,0,1-1.3079-1.36088h0.54505Z" transform="translate(0.00033 0)"/><path class="a" d="M57.5686,24.49773H55.95126V23.86121h3.92879v0.63652H58.2724v6.40095H57.5686V24.49773Z" transform="translate(0.00033 0)"/><path class="a" d="M62.49118,26.53231a2.23389,2.23389,0,1,1-2.21851,2.26592A2.25968,2.25968,0,0,1,62.49118,26.53231Zm0.00761,3.978a1.74446,1.74446,0,0,0,0-3.48666A1.74448,1.74448,0,0,0,62.49878,30.51035Z" transform="translate(0.00033 0)"/><path class="a" d="M69.254,30.89868H68.74015V30.23683H68.7245A1.44417,1.44417,0,0,1,67.36222,31a1.78683,1.78683,0,0,1-1.46327-.63825,2.202,2.202,0,0,1-.3736-1.36927V26.6421h0.545V28.984a1.73819,1.73819,0,0,0,.30356,1.12116,1.27872,1.27872,0,0,0,.98834.40519,1.21909,1.21909,0,0,0,.903-0.34277,1.53688,1.53688,0,0,0,.44372-1.27642V26.6421H69.254v4.25658Z" transform="translate(0.00033 0)"/><path class="a" d="M70.27941,26.6421h0.54505v0.61457H70.84a1.21492,1.21492,0,0,1,1.19861-.72436v0.57584a1.31753,1.31753,0,0,0-.9183.4204,1.39448,1.39448,0,0,0-.29587.87971v2.49042H70.27941V26.6421Z" transform="translate(0.00033 0)"/><path class="a" d="M75.416,23.86121h3.85236v0.63652H76.11977v2.53106h3.04386v0.63652H76.11977v2.59684h3.14857v0.63652H75.416V23.86121Z" transform="translate(0.00033 0)"/><path class="a" d="M80.35368,25.13936h0.54505v0.981H80.35368v-0.981Zm0,1.50274h0.54505v4.25658H80.35368V26.6421Z" transform="translate(0.00033 0)"/><path class="a" d="M82.21337,27.13175H81.55186V26.6421h0.66151A1.40937,1.40937,0,0,1,83.848,25.038v0.50659a0.92425,0.92425,0,0,0-1.08958,1.09747H83.848v0.48965H82.75842v3.76693H82.21337V27.13175Z" transform="translate(0.00033 0)"/><path class="a" d="M84.19169,27.13175H83.52975V26.6421h0.66194a1.40884,1.40884,0,0,1,1.6342-1.60406v0.50659a0.92425,0.92425,0,0,0-1.08958,1.09747h1.08958v0.48965H84.73631v3.76693H84.19169V27.13175Z" transform="translate(0.00033 0)"/><path class="a" d="M86.528,28.96879a1.69335,1.69335,0,0,0,1.6502,1.54156A1.61309,1.61309,0,0,0,89.704,29.50573h0.57583a2.10592,2.10592,0,1,1,.12459-0.53694H86.528Zm3.32374-.48965a1.67651,1.67651,0,0,0-3.32374,0h3.32374Z" transform="translate(0.00033 0)"/><path class="a" d="M91.23567,25.13936h0.545v5.75932h-0.545V25.13936Z" transform="translate(0.00033 0)"/><path class="b" d="M2.66544,22.43056a3.88087,3.88087,0,0,0,.4319,2.40776,3.32456,3.32456,0,0,0,.62807.89239,6.53193,6.53193,0,0,0,2.79224,1.2188c0.482,0.1392.99363,0.17436,1.48081,0.29791a4.12924,4.12924,0,0,1,1.81487.94181,13.95709,13.95709,0,0,0,2.75873,1.94861,3.13359,3.13359,0,0,0,2.8801.04289c0.73538-.307,1.41773-0.74014,2.1248-1.1161a3.83544,3.83544,0,0,1,2.10629-.48126c0.57438,0.04163,1.14683.12228,1.72121,0.1717a4.51405,4.51405,0,0,0,2.4875-.44876,2.64229,2.64229,0,0,0,.51969-0.3773,3.49818,3.49818,0,0,0,.86847-1.332c0.348-.8429.71033-1.68188,1.0284-2.53524a4.86215,4.86215,0,0,1,1.21124-1.864c0.63746-.61007,1.27366-1.22406,1.86822-1.87575a3.27829,3.27829,0,0,0,.8261-3.066,10.03735,10.03735,0,0,0-.71166-2.06443,5.00709,5.00709,0,0,1-.26931-3.51607A14.83955,14.83955,0,0,0,29.57788,9.619a4.95905,4.95905,0,0,0-.15414-0.90151,2.21983,2.21983,0,0,0-.85021-1.4868A10.57606,10.57606,0,0,0,25.64307,5.6983,1.43292,1.43292,0,0,1,24.759,4.89576c-0.145-.39415-0.25365-0.80134-0.3968-1.19675a3.119,3.119,0,0,0-2.17916-1.96034A5.71065,5.71065,0,0,0,20.004,1.71529,4.39648,4.39648,0,0,1,17.72983,1.446c-0.61408-.28492-1.20864-0.6114-1.835-0.86375A8.61666,8.61666,0,0,0,14.13913.03721a3.54541,3.54541,0,0,0-1.42526.08718,5.06461,5.06461,0,0,0-1.995,1.30079A18.75666,18.75666,0,0,1,9.08254,2.82486,5.02705,5.02705,0,0,1,6.66239,3.474a5.52558,5.52558,0,0,0-1.86562.48259A2.96749,2.96749,0,0,0,3.08695,5.714a11.58441,11.58441,0,0,0-.512,3.09329,4.16581,4.16581,0,0,1-.7435,2.47416A8.49322,8.49322,0,0,0,.08982,14.47486a4.066,4.066,0,0,0,.00033,1.70406,6.44383,6.44383,0,0,0,1.38,2.45458,4.374,4.374,0,0,1,1.03626,2.03839C2.58837,21.30147,2.62214,21.93758,2.66544,22.43056Z" transform="translate(0.00033 0)"/><path class="a" d="M23.90427,10.07426A2.1887,2.1887,0,0,1,22.8505,11.6547a4.75417,4.75417,0,0,1,.96012,2.6107q0,0.29271-.17565.29271-0.14048,0-.14048-0.38635a4.22092,4.22092,0,0,0-.81964-2.37659,15.59562,15.59562,0,0,1-4.61909,2.18278,17.538,17.538,0,0,1-5.18122.91963q-0.31613,0-.55027-0.02338a8.69679,8.69679,0,0,0-1.87342,5.03411,3.40494,3.40494,0,0,0,1.02447,2.6107,3.92122,3.92122,0,0,0,2.79257.96,7.58449,7.58449,0,0,0,5.9481-3.19605,5.91682,5.91682,0,0,0,1.58073-3.66439,1.94044,1.94044,0,0,0-.54967-1.4517,1.99642,1.99642,0,0,0-1.461-.53854,4.84072,4.84072,0,0,0-3.13861,1.53888,4.19748,4.19748,0,0,0-1.677,2.87477c0,0.07806.02345,0.11708,0.06961,0.11708a0.17887,0.17887,0,0,0,.09305-0.04682,0.90767,0.90767,0,0,1,.58024-0.281,0.54726,0.54726,0,0,1,.5919.6439,0.75559,0.75559,0,0,1-.843.86635,0.764,0.764,0,0,1-.77281-0.93661,4.70725,4.70725,0,0,1,1.69783-3.31966A4.99086,4.99086,0,0,1,19.82959,14.441q2.2481,0,2.2481,2.47023a6.09242,6.09242,0,0,1-2.44127,4.653,8.10631,8.10631,0,0,1-5.41535,2.10213,4.76392,4.76392,0,0,1-3.48339-1.39316A4.64576,4.64576,0,0,1,9.3268,18.83124a7.38468,7.38468,0,0,1,1.39335-4.08584q-5.07-.93658-5.07-4.00386A3.58732,3.58732,0,0,1,7.53532,7.68594a8.42341,8.42341,0,0,1,4.69523-1.22926,14.45924,14.45924,0,0,1,7.9269,2.6107,7.093,7.093,0,0,1,1.4168-.14046Q23.90427,8.92692,23.90427,10.07426ZM19.82959,9.1142A14.88169,14.88169,0,0,0,12.254,7.05377,7.95753,7.95753,0,0,0,7.91586,8.22448,3.29986,3.29986,0,0,0,6.06,10.964q0,2.798,4.75378,3.6175Q13.76442,10.47223,19.82959,9.1142Zm2.75161,2.51705A8.81533,8.81533,0,0,0,20.15744,9.325a13.78105,13.78105,0,0,0-4.27372,2.05391,14.07875,14.07875,0,0,0-3.419,3.31966,18.898,18.898,0,0,0,5.41535-.89625A15.50439,15.50439,0,0,0,22.58119,11.63126Zm1.13577-1.557q0-.96005-1.87342-0.96005a7.1623,7.1623,0,0,0-1.39335.16391,9.2646,9.2646,0,0,1,2.30665,2.23613A2.1804,2.1804,0,0,0,23.717,10.07426Z" transform="translate(0.00033 0)"/></svg>